G04 #@! TF.GenerationSoftware,KiCad,Pcbnew,(5.1.8)-1*
G04 #@! TF.CreationDate,2020-12-06T15:56:29+10:30*
G04 #@! TF.ProjectId,ArlecFanESP,41726c65-6346-4616-9e45-53502e6b6963,rev?*
G04 #@! TF.SameCoordinates,Original*
G04 #@! TF.FileFunction,Soldermask,Top*
G04 #@! TF.FilePolarity,Negative*
%FSLAX46Y46*%
G04 Gerber Fmt 4.6, Leading zero omitted, Abs format (unit mm)*
G04 Created by KiCad (PCBNEW (5.1.8)-1) date 2020-12-06 15:56:29*
%MOMM*%
%LPD*%
G01*
G04 APERTURE LIST*
%ADD10R,2.600000X1.100000*%
%ADD11O,1.600000X1.600000*%
%ADD12R,1.600000X1.600000*%
%ADD13O,1.350000X1.350000*%
%ADD14R,1.350000X1.350000*%
%ADD15C,1.600000*%
G04 APERTURE END LIST*
G36*
G01*
X129450000Y-118475000D02*
X129450000Y-117525000D01*
G75*
G02*
X129700000Y-117275000I250000J0D01*
G01*
X130200000Y-117275000D01*
G75*
G02*
X130450000Y-117525000I0J-250000D01*
G01*
X130450000Y-118475000D01*
G75*
G02*
X130200000Y-118725000I-250000J0D01*
G01*
X129700000Y-118725000D01*
G75*
G02*
X129450000Y-118475000I0J250000D01*
G01*
G37*
G36*
G01*
X127550000Y-118475000D02*
X127550000Y-117525000D01*
G75*
G02*
X127800000Y-117275000I250000J0D01*
G01*
X128300000Y-117275000D01*
G75*
G02*
X128550000Y-117525000I0J-250000D01*
G01*
X128550000Y-118475000D01*
G75*
G02*
X128300000Y-118725000I-250000J0D01*
G01*
X127800000Y-118725000D01*
G75*
G02*
X127550000Y-118475000I0J250000D01*
G01*
G37*
G36*
G01*
X129450000Y-121475000D02*
X129450000Y-120525000D01*
G75*
G02*
X129700000Y-120275000I250000J0D01*
G01*
X130200000Y-120275000D01*
G75*
G02*
X130450000Y-120525000I0J-250000D01*
G01*
X130450000Y-121475000D01*
G75*
G02*
X130200000Y-121725000I-250000J0D01*
G01*
X129700000Y-121725000D01*
G75*
G02*
X129450000Y-121475000I0J250000D01*
G01*
G37*
G36*
G01*
X127550000Y-121475000D02*
X127550000Y-120525000D01*
G75*
G02*
X127800000Y-120275000I250000J0D01*
G01*
X128300000Y-120275000D01*
G75*
G02*
X128550000Y-120525000I0J-250000D01*
G01*
X128550000Y-121475000D01*
G75*
G02*
X128300000Y-121725000I-250000J0D01*
G01*
X127800000Y-121725000D01*
G75*
G02*
X127550000Y-121475000I0J250000D01*
G01*
G37*
D10*
X123499758Y-99680000D03*
X123499758Y-101680000D03*
X123499758Y-103680000D03*
X123499758Y-105680000D03*
X123499758Y-107680000D03*
X123499758Y-109680000D03*
X123499758Y-111680000D03*
X123499758Y-113680000D03*
X138899758Y-113680000D03*
X138899758Y-111680000D03*
X138899758Y-109680000D03*
X138899758Y-107680000D03*
X138899758Y-105680000D03*
X138899758Y-103680000D03*
X138899758Y-101680000D03*
X138899758Y-99680000D03*
D11*
X125000000Y-118380000D03*
D12*
X125000000Y-126000000D03*
D13*
X121920000Y-118080000D03*
X121920000Y-120080000D03*
X121920000Y-122080000D03*
X121920000Y-124080000D03*
X121920000Y-126080000D03*
X121920000Y-128080000D03*
X121920000Y-130080000D03*
X121920000Y-132080000D03*
D14*
X121920000Y-134080000D03*
D15*
X128230000Y-132000000D03*
D12*
X125730000Y-132000000D03*
M02*
