G04 #@! TF.GenerationSoftware,KiCad,Pcbnew,(5.1.8)-1*
G04 #@! TF.CreationDate,2020-12-06T15:56:29+10:30*
G04 #@! TF.ProjectId,ArlecFanESP,41726c65-6346-4616-9e45-53502e6b6963,rev?*
G04 #@! TF.SameCoordinates,Original*
G04 #@! TF.FileFunction,Copper,L2,Bot*
G04 #@! TF.FilePolarity,Positive*
%FSLAX46Y46*%
G04 Gerber Fmt 4.6, Leading zero omitted, Abs format (unit mm)*
G04 Created by KiCad (PCBNEW (5.1.8)-1) date 2020-12-06 15:56:29*
%MOMM*%
%LPD*%
G01*
G04 APERTURE LIST*
G04 #@! TA.AperFunction,ComponentPad*
%ADD10O,1.600000X1.600000*%
G04 #@! TD*
G04 #@! TA.AperFunction,ComponentPad*
%ADD11R,1.600000X1.600000*%
G04 #@! TD*
G04 #@! TA.AperFunction,ComponentPad*
%ADD12O,1.350000X1.350000*%
G04 #@! TD*
G04 #@! TA.AperFunction,ComponentPad*
%ADD13R,1.350000X1.350000*%
G04 #@! TD*
G04 #@! TA.AperFunction,ComponentPad*
%ADD14C,1.600000*%
G04 #@! TD*
G04 #@! TA.AperFunction,ViaPad*
%ADD15C,0.800000*%
G04 #@! TD*
G04 #@! TA.AperFunction,Conductor*
%ADD16C,0.500000*%
G04 #@! TD*
G04 #@! TA.AperFunction,Conductor*
%ADD17C,0.254000*%
G04 #@! TD*
G04 #@! TA.AperFunction,Conductor*
%ADD18C,0.100000*%
G04 #@! TD*
G04 APERTURE END LIST*
D10*
X125000000Y-118380000D03*
D11*
X125000000Y-126000000D03*
D12*
X121920000Y-118080000D03*
X121920000Y-120080000D03*
X121920000Y-122080000D03*
X121920000Y-124080000D03*
X121920000Y-126080000D03*
X121920000Y-128080000D03*
X121920000Y-130080000D03*
X121920000Y-132080000D03*
D13*
X121920000Y-134080000D03*
D14*
X128230000Y-132000000D03*
D11*
X125730000Y-132000000D03*
D15*
X126000000Y-99500000D03*
X136500000Y-99500000D03*
X136500000Y-113500000D03*
X124500000Y-129000000D03*
X122000000Y-116000000D03*
X136500000Y-101500000D03*
X136500000Y-103500000D03*
D16*
X136500000Y-101500000D02*
X123500000Y-114500000D01*
X123500000Y-122500000D02*
X121920000Y-124080000D01*
X123500000Y-114500000D02*
X123500000Y-122500000D01*
X136500000Y-103500000D02*
X125000000Y-115000000D01*
X125000000Y-115000000D02*
X125000000Y-118380000D01*
X124920000Y-126080000D02*
X125000000Y-126000000D01*
X121920000Y-126080000D02*
X124920000Y-126080000D01*
D17*
X141340001Y-115340000D02*
X131032419Y-115340000D01*
X131000000Y-115336807D01*
X130967581Y-115340000D01*
X130870617Y-115349550D01*
X130746207Y-115387290D01*
X130631550Y-115448575D01*
X130531052Y-115531052D01*
X130448575Y-115631550D01*
X130387290Y-115746207D01*
X130349550Y-115870617D01*
X130336807Y-116000000D01*
X130340000Y-116032419D01*
X130340001Y-135340000D01*
X122847603Y-135340000D01*
X122949494Y-135285537D01*
X123046185Y-135206185D01*
X123125537Y-135109494D01*
X123184502Y-134999180D01*
X123220812Y-134879482D01*
X123233072Y-134755000D01*
X123230000Y-134365750D01*
X123071250Y-134207000D01*
X122047000Y-134207000D01*
X122047000Y-134227000D01*
X121793000Y-134227000D01*
X121793000Y-134207000D01*
X121773000Y-134207000D01*
X121773000Y-133953000D01*
X121793000Y-133953000D01*
X121793000Y-133933000D01*
X122047000Y-133933000D01*
X122047000Y-133953000D01*
X123071250Y-133953000D01*
X123230000Y-133794250D01*
X123233072Y-133405000D01*
X123220812Y-133280518D01*
X123184502Y-133160820D01*
X123125537Y-133050506D01*
X123046185Y-132953815D01*
X122959303Y-132882513D01*
X123080907Y-132700518D01*
X123179658Y-132462113D01*
X123230000Y-132209024D01*
X123230000Y-131950976D01*
X123179658Y-131697887D01*
X123080907Y-131459482D01*
X122937544Y-131244923D01*
X122892621Y-131200000D01*
X124291928Y-131200000D01*
X124291928Y-132800000D01*
X124304188Y-132924482D01*
X124340498Y-133044180D01*
X124399463Y-133154494D01*
X124478815Y-133251185D01*
X124575506Y-133330537D01*
X124685820Y-133389502D01*
X124805518Y-133425812D01*
X124930000Y-133438072D01*
X126530000Y-133438072D01*
X126654482Y-133425812D01*
X126774180Y-133389502D01*
X126884494Y-133330537D01*
X126981185Y-133251185D01*
X127060537Y-133154494D01*
X127119502Y-133044180D01*
X127135117Y-132992702D01*
X127416903Y-132992702D01*
X127488486Y-133236671D01*
X127743996Y-133357571D01*
X128018184Y-133426300D01*
X128300512Y-133440217D01*
X128580130Y-133398787D01*
X128846292Y-133303603D01*
X128971514Y-133236671D01*
X129043097Y-132992702D01*
X128230000Y-132179605D01*
X127416903Y-132992702D01*
X127135117Y-132992702D01*
X127155812Y-132924482D01*
X127168072Y-132800000D01*
X127168072Y-132792785D01*
X127237298Y-132813097D01*
X128050395Y-132000000D01*
X128409605Y-132000000D01*
X129222702Y-132813097D01*
X129466671Y-132741514D01*
X129587571Y-132486004D01*
X129656300Y-132211816D01*
X129670217Y-131929488D01*
X129628787Y-131649870D01*
X129533603Y-131383708D01*
X129466671Y-131258486D01*
X129222702Y-131186903D01*
X128409605Y-132000000D01*
X128050395Y-132000000D01*
X127237298Y-131186903D01*
X127168072Y-131207215D01*
X127168072Y-131200000D01*
X127155812Y-131075518D01*
X127135118Y-131007298D01*
X127416903Y-131007298D01*
X128230000Y-131820395D01*
X129043097Y-131007298D01*
X128971514Y-130763329D01*
X128716004Y-130642429D01*
X128441816Y-130573700D01*
X128159488Y-130559783D01*
X127879870Y-130601213D01*
X127613708Y-130696397D01*
X127488486Y-130763329D01*
X127416903Y-131007298D01*
X127135118Y-131007298D01*
X127119502Y-130955820D01*
X127060537Y-130845506D01*
X126981185Y-130748815D01*
X126884494Y-130669463D01*
X126774180Y-130610498D01*
X126654482Y-130574188D01*
X126530000Y-130561928D01*
X124930000Y-130561928D01*
X124805518Y-130574188D01*
X124685820Y-130610498D01*
X124575506Y-130669463D01*
X124478815Y-130748815D01*
X124399463Y-130845506D01*
X124340498Y-130955820D01*
X124304188Y-131075518D01*
X124291928Y-131200000D01*
X122892621Y-131200000D01*
X122772621Y-131080000D01*
X122937544Y-130915077D01*
X123080907Y-130700518D01*
X123179658Y-130462113D01*
X123230000Y-130209024D01*
X123230000Y-129950976D01*
X123179658Y-129697887D01*
X123080907Y-129459482D01*
X122937544Y-129244923D01*
X122772621Y-129080000D01*
X122937544Y-128915077D01*
X123080907Y-128700518D01*
X123179658Y-128462113D01*
X123230000Y-128209024D01*
X123230000Y-127950976D01*
X123179658Y-127697887D01*
X123080907Y-127459482D01*
X122937544Y-127244923D01*
X122772621Y-127080000D01*
X122887621Y-126965000D01*
X123586479Y-126965000D01*
X123610498Y-127044180D01*
X123669463Y-127154494D01*
X123748815Y-127251185D01*
X123845506Y-127330537D01*
X123955820Y-127389502D01*
X124075518Y-127425812D01*
X124200000Y-127438072D01*
X125800000Y-127438072D01*
X125924482Y-127425812D01*
X126044180Y-127389502D01*
X126154494Y-127330537D01*
X126251185Y-127251185D01*
X126330537Y-127154494D01*
X126389502Y-127044180D01*
X126425812Y-126924482D01*
X126438072Y-126800000D01*
X126438072Y-125200000D01*
X126425812Y-125075518D01*
X126389502Y-124955820D01*
X126330537Y-124845506D01*
X126251185Y-124748815D01*
X126154494Y-124669463D01*
X126044180Y-124610498D01*
X125924482Y-124574188D01*
X125800000Y-124561928D01*
X124200000Y-124561928D01*
X124075518Y-124574188D01*
X123955820Y-124610498D01*
X123845506Y-124669463D01*
X123748815Y-124748815D01*
X123669463Y-124845506D01*
X123610498Y-124955820D01*
X123574188Y-125075518D01*
X123562420Y-125195000D01*
X122887621Y-125195000D01*
X122772621Y-125080000D01*
X122937544Y-124915077D01*
X123080907Y-124700518D01*
X123179658Y-124462113D01*
X123230000Y-124209024D01*
X123230000Y-124021578D01*
X124095049Y-123156530D01*
X124128817Y-123128817D01*
X124239411Y-122994059D01*
X124321589Y-122840313D01*
X124372195Y-122673490D01*
X124385000Y-122543477D01*
X124385000Y-122543467D01*
X124389281Y-122500001D01*
X124385000Y-122456535D01*
X124385000Y-119678491D01*
X124581426Y-119759853D01*
X124858665Y-119815000D01*
X125141335Y-119815000D01*
X125418574Y-119759853D01*
X125679727Y-119651680D01*
X125914759Y-119494637D01*
X126114637Y-119294759D01*
X126271680Y-119059727D01*
X126379853Y-118798574D01*
X126435000Y-118521335D01*
X126435000Y-118238665D01*
X126379853Y-117961426D01*
X126271680Y-117700273D01*
X126114637Y-117465241D01*
X125914759Y-117265363D01*
X125885000Y-117245479D01*
X125885000Y-115366578D01*
X136745044Y-104506535D01*
X136801898Y-104495226D01*
X136990256Y-104417205D01*
X137159774Y-104303937D01*
X137303937Y-104159774D01*
X137417205Y-103990256D01*
X137495226Y-103801898D01*
X137535000Y-103601939D01*
X137535000Y-103398061D01*
X137495226Y-103198102D01*
X137417205Y-103009744D01*
X137303937Y-102840226D01*
X137159774Y-102696063D01*
X136990256Y-102582795D01*
X136801898Y-102504774D01*
X136777897Y-102500000D01*
X136801898Y-102495226D01*
X136990256Y-102417205D01*
X137159774Y-102303937D01*
X137303937Y-102159774D01*
X137417205Y-101990256D01*
X137495226Y-101801898D01*
X137535000Y-101601939D01*
X137535000Y-101398061D01*
X137495226Y-101198102D01*
X137417205Y-101009744D01*
X137303937Y-100840226D01*
X137159774Y-100696063D01*
X136990256Y-100582795D01*
X136801898Y-100504774D01*
X136601939Y-100465000D01*
X136398061Y-100465000D01*
X136198102Y-100504774D01*
X136009744Y-100582795D01*
X135840226Y-100696063D01*
X135696063Y-100840226D01*
X135582795Y-101009744D01*
X135504774Y-101198102D01*
X135493465Y-101254956D01*
X122904956Y-113843466D01*
X122871183Y-113871183D01*
X122760589Y-114005942D01*
X122678411Y-114159688D01*
X122627805Y-114326511D01*
X122615000Y-114456524D01*
X122615000Y-114456531D01*
X122610719Y-114500000D01*
X122615000Y-114543469D01*
X122615000Y-116968860D01*
X122540518Y-116919093D01*
X122302113Y-116820342D01*
X122049024Y-116770000D01*
X121790976Y-116770000D01*
X121537887Y-116820342D01*
X121299482Y-116919093D01*
X121084923Y-117062456D01*
X120902456Y-117244923D01*
X120759093Y-117459482D01*
X120660342Y-117697887D01*
X120660000Y-117699606D01*
X120660000Y-98160000D01*
X141340000Y-98160000D01*
X141340001Y-115340000D01*
G04 #@! TA.AperFunction,Conductor*
D18*
G36*
X141340001Y-115340000D02*
G01*
X131032419Y-115340000D01*
X131000000Y-115336807D01*
X130967581Y-115340000D01*
X130870617Y-115349550D01*
X130746207Y-115387290D01*
X130631550Y-115448575D01*
X130531052Y-115531052D01*
X130448575Y-115631550D01*
X130387290Y-115746207D01*
X130349550Y-115870617D01*
X130336807Y-116000000D01*
X130340000Y-116032419D01*
X130340001Y-135340000D01*
X122847603Y-135340000D01*
X122949494Y-135285537D01*
X123046185Y-135206185D01*
X123125537Y-135109494D01*
X123184502Y-134999180D01*
X123220812Y-134879482D01*
X123233072Y-134755000D01*
X123230000Y-134365750D01*
X123071250Y-134207000D01*
X122047000Y-134207000D01*
X122047000Y-134227000D01*
X121793000Y-134227000D01*
X121793000Y-134207000D01*
X121773000Y-134207000D01*
X121773000Y-133953000D01*
X121793000Y-133953000D01*
X121793000Y-133933000D01*
X122047000Y-133933000D01*
X122047000Y-133953000D01*
X123071250Y-133953000D01*
X123230000Y-133794250D01*
X123233072Y-133405000D01*
X123220812Y-133280518D01*
X123184502Y-133160820D01*
X123125537Y-133050506D01*
X123046185Y-132953815D01*
X122959303Y-132882513D01*
X123080907Y-132700518D01*
X123179658Y-132462113D01*
X123230000Y-132209024D01*
X123230000Y-131950976D01*
X123179658Y-131697887D01*
X123080907Y-131459482D01*
X122937544Y-131244923D01*
X122892621Y-131200000D01*
X124291928Y-131200000D01*
X124291928Y-132800000D01*
X124304188Y-132924482D01*
X124340498Y-133044180D01*
X124399463Y-133154494D01*
X124478815Y-133251185D01*
X124575506Y-133330537D01*
X124685820Y-133389502D01*
X124805518Y-133425812D01*
X124930000Y-133438072D01*
X126530000Y-133438072D01*
X126654482Y-133425812D01*
X126774180Y-133389502D01*
X126884494Y-133330537D01*
X126981185Y-133251185D01*
X127060537Y-133154494D01*
X127119502Y-133044180D01*
X127135117Y-132992702D01*
X127416903Y-132992702D01*
X127488486Y-133236671D01*
X127743996Y-133357571D01*
X128018184Y-133426300D01*
X128300512Y-133440217D01*
X128580130Y-133398787D01*
X128846292Y-133303603D01*
X128971514Y-133236671D01*
X129043097Y-132992702D01*
X128230000Y-132179605D01*
X127416903Y-132992702D01*
X127135117Y-132992702D01*
X127155812Y-132924482D01*
X127168072Y-132800000D01*
X127168072Y-132792785D01*
X127237298Y-132813097D01*
X128050395Y-132000000D01*
X128409605Y-132000000D01*
X129222702Y-132813097D01*
X129466671Y-132741514D01*
X129587571Y-132486004D01*
X129656300Y-132211816D01*
X129670217Y-131929488D01*
X129628787Y-131649870D01*
X129533603Y-131383708D01*
X129466671Y-131258486D01*
X129222702Y-131186903D01*
X128409605Y-132000000D01*
X128050395Y-132000000D01*
X127237298Y-131186903D01*
X127168072Y-131207215D01*
X127168072Y-131200000D01*
X127155812Y-131075518D01*
X127135118Y-131007298D01*
X127416903Y-131007298D01*
X128230000Y-131820395D01*
X129043097Y-131007298D01*
X128971514Y-130763329D01*
X128716004Y-130642429D01*
X128441816Y-130573700D01*
X128159488Y-130559783D01*
X127879870Y-130601213D01*
X127613708Y-130696397D01*
X127488486Y-130763329D01*
X127416903Y-131007298D01*
X127135118Y-131007298D01*
X127119502Y-130955820D01*
X127060537Y-130845506D01*
X126981185Y-130748815D01*
X126884494Y-130669463D01*
X126774180Y-130610498D01*
X126654482Y-130574188D01*
X126530000Y-130561928D01*
X124930000Y-130561928D01*
X124805518Y-130574188D01*
X124685820Y-130610498D01*
X124575506Y-130669463D01*
X124478815Y-130748815D01*
X124399463Y-130845506D01*
X124340498Y-130955820D01*
X124304188Y-131075518D01*
X124291928Y-131200000D01*
X122892621Y-131200000D01*
X122772621Y-131080000D01*
X122937544Y-130915077D01*
X123080907Y-130700518D01*
X123179658Y-130462113D01*
X123230000Y-130209024D01*
X123230000Y-129950976D01*
X123179658Y-129697887D01*
X123080907Y-129459482D01*
X122937544Y-129244923D01*
X122772621Y-129080000D01*
X122937544Y-128915077D01*
X123080907Y-128700518D01*
X123179658Y-128462113D01*
X123230000Y-128209024D01*
X123230000Y-127950976D01*
X123179658Y-127697887D01*
X123080907Y-127459482D01*
X122937544Y-127244923D01*
X122772621Y-127080000D01*
X122887621Y-126965000D01*
X123586479Y-126965000D01*
X123610498Y-127044180D01*
X123669463Y-127154494D01*
X123748815Y-127251185D01*
X123845506Y-127330537D01*
X123955820Y-127389502D01*
X124075518Y-127425812D01*
X124200000Y-127438072D01*
X125800000Y-127438072D01*
X125924482Y-127425812D01*
X126044180Y-127389502D01*
X126154494Y-127330537D01*
X126251185Y-127251185D01*
X126330537Y-127154494D01*
X126389502Y-127044180D01*
X126425812Y-126924482D01*
X126438072Y-126800000D01*
X126438072Y-125200000D01*
X126425812Y-125075518D01*
X126389502Y-124955820D01*
X126330537Y-124845506D01*
X126251185Y-124748815D01*
X126154494Y-124669463D01*
X126044180Y-124610498D01*
X125924482Y-124574188D01*
X125800000Y-124561928D01*
X124200000Y-124561928D01*
X124075518Y-124574188D01*
X123955820Y-124610498D01*
X123845506Y-124669463D01*
X123748815Y-124748815D01*
X123669463Y-124845506D01*
X123610498Y-124955820D01*
X123574188Y-125075518D01*
X123562420Y-125195000D01*
X122887621Y-125195000D01*
X122772621Y-125080000D01*
X122937544Y-124915077D01*
X123080907Y-124700518D01*
X123179658Y-124462113D01*
X123230000Y-124209024D01*
X123230000Y-124021578D01*
X124095049Y-123156530D01*
X124128817Y-123128817D01*
X124239411Y-122994059D01*
X124321589Y-122840313D01*
X124372195Y-122673490D01*
X124385000Y-122543477D01*
X124385000Y-122543467D01*
X124389281Y-122500001D01*
X124385000Y-122456535D01*
X124385000Y-119678491D01*
X124581426Y-119759853D01*
X124858665Y-119815000D01*
X125141335Y-119815000D01*
X125418574Y-119759853D01*
X125679727Y-119651680D01*
X125914759Y-119494637D01*
X126114637Y-119294759D01*
X126271680Y-119059727D01*
X126379853Y-118798574D01*
X126435000Y-118521335D01*
X126435000Y-118238665D01*
X126379853Y-117961426D01*
X126271680Y-117700273D01*
X126114637Y-117465241D01*
X125914759Y-117265363D01*
X125885000Y-117245479D01*
X125885000Y-115366578D01*
X136745044Y-104506535D01*
X136801898Y-104495226D01*
X136990256Y-104417205D01*
X137159774Y-104303937D01*
X137303937Y-104159774D01*
X137417205Y-103990256D01*
X137495226Y-103801898D01*
X137535000Y-103601939D01*
X137535000Y-103398061D01*
X137495226Y-103198102D01*
X137417205Y-103009744D01*
X137303937Y-102840226D01*
X137159774Y-102696063D01*
X136990256Y-102582795D01*
X136801898Y-102504774D01*
X136777897Y-102500000D01*
X136801898Y-102495226D01*
X136990256Y-102417205D01*
X137159774Y-102303937D01*
X137303937Y-102159774D01*
X137417205Y-101990256D01*
X137495226Y-101801898D01*
X137535000Y-101601939D01*
X137535000Y-101398061D01*
X137495226Y-101198102D01*
X137417205Y-101009744D01*
X137303937Y-100840226D01*
X137159774Y-100696063D01*
X136990256Y-100582795D01*
X136801898Y-100504774D01*
X136601939Y-100465000D01*
X136398061Y-100465000D01*
X136198102Y-100504774D01*
X136009744Y-100582795D01*
X135840226Y-100696063D01*
X135696063Y-100840226D01*
X135582795Y-101009744D01*
X135504774Y-101198102D01*
X135493465Y-101254956D01*
X122904956Y-113843466D01*
X122871183Y-113871183D01*
X122760589Y-114005942D01*
X122678411Y-114159688D01*
X122627805Y-114326511D01*
X122615000Y-114456524D01*
X122615000Y-114456531D01*
X122610719Y-114500000D01*
X122615000Y-114543469D01*
X122615000Y-116968860D01*
X122540518Y-116919093D01*
X122302113Y-116820342D01*
X122049024Y-116770000D01*
X121790976Y-116770000D01*
X121537887Y-116820342D01*
X121299482Y-116919093D01*
X121084923Y-117062456D01*
X120902456Y-117244923D01*
X120759093Y-117459482D01*
X120660342Y-117697887D01*
X120660000Y-117699606D01*
X120660000Y-98160000D01*
X141340000Y-98160000D01*
X141340001Y-115340000D01*
G37*
G04 #@! TD.AperFunction*
M02*
