M48
INCH,TZ
T1C0.0157
T2C0.0315
%
G90
G05
T1
X48031Y-45669
X49016Y-50787
X49606Y-39173
X53740Y-39173
X53740Y-39961
X53740Y-40748
X53740Y-44685
T2
X49213Y-46606
X49213Y-49606
X49500Y-51969
X50484Y-51969
X48000Y-46488
X48000Y-47276
X48000Y-48063
X48000Y-48850
X48000Y-49638
X48000Y-50425
X48000Y-51213
X48000Y-52000
X48000Y-52787
T0
M30
